<svg width="200" height="182" viewBox="0 0 200 182" fill="none" xmlns="http://www.w3.org/2000/svg">
<path d="M118 0H0V14H118V0Z" fill="url(#paint0_linear_120_2388)"/>
<path d="M92.9134 28H0V42H92.9134V28Z" fill="url(#paint1_linear_120_2388)"/>
<path fill-rule="evenodd" clip-rule="evenodd" d="M79 49C79 21.938 100.938 0 128 0H200V14H128C108.67 14 93 29.67 93 49V182H79V49Z" fill="white"/>
<path fill-rule="evenodd" clip-rule="evenodd" d="M107 53C107 39.1929 118.193 28 132 28H200V42H132C125.925 42 121 46.9249 121 53V182H107V53Z" fill="white"/>
<defs>
<linearGradient id="paint0_linear_120_2388" x1="21" y1="-2.5" x2="115.252" y2="44.4792" gradientUnits="userSpaceOnUse">
<stop stop-color="white"/>
<stop offset="1" stop-color="white" stop-opacity="0"/>
</linearGradient>
<linearGradient id="paint1_linear_120_2388" x1="21" y1="-2.5" x2="115.252" y2="44.4792" gradientUnits="userSpaceOnUse">
<stop stop-color="white"/>
<stop offset="1" stop-color="white" stop-opacity="0"/>
</linearGradient>
</defs>
</svg>
