<svg width="650" height="650" viewBox="0 0 650 650" fill="none" xmlns="http://www.w3.org/2000/svg">
<rect width="650" height="650" rx="325" fill="black"/>
<path fill-rule="evenodd" clip-rule="evenodd" d="M411 366.5C411 401.018 383.018 429 348.5 429H239V215H348.5C383.018 215 411 242.982 411 277.5C411 294.915 401 322 375 322C401 322 411 349.085 411 366.5ZM375 277.5C375 292.136 363.136 304 348.5 304H275V251H348.5C363.136 251 375 262.864 375 277.5ZM375 366.5C375 351.864 363.136 340 348.5 340H275V393H348.5C363.136 393 375 381.136 375 366.5Z" fill="white"/>
<path fill-rule="evenodd" clip-rule="evenodd" d="M411 366.5C411 401.018 383.018 429 348.5 429H239V215H348.5C383.018 215 411 242.982 411 277.5C411 294.915 401 322 375 322C401 322 411 349.085 411 366.5ZM375 277.5C375 292.136 363.136 304 348.5 304H275V251H348.5C363.136 251 375 262.864 375 277.5ZM375 366.5C375 351.864 363.136 340 348.5 340H275V393H348.5C363.136 393 375 381.136 375 366.5Z" fill="url(#paint0_radial_74_651)" fill-opacity="0.2"/>
<g filter="url(#filter0_dd_74_651)">
<rect x="307" y="340" width="36" height="125" fill="url(#paint1_linear_74_651)" shape-rendering="crispEdges"/>
</g>
<path d="M239 465H411V501H239V465Z" fill="white"/>
<g filter="url(#filter1_dd_74_651)">
<rect x="343" y="304" width="36" height="125" transform="rotate(-180 343 304)" fill="url(#paint2_linear_74_651)" shape-rendering="crispEdges"/>
</g>
<path d="M239 143H411V179H239V143Z" fill="white"/>
<defs>
<filter id="filter0_dd_74_651" x="277" y="320" width="96" height="165" filterUnits="userSpaceOnUse" color-interpolation-filters="sRGB">
<feFlood flood-opacity="0" result="BackgroundImageFix"/>
<feColorMatrix in="SourceAlpha" type="matrix" values="0 0 0 0 0 0 0 0 0 0 0 0 0 0 0 0 0 0 127 0" result="hardAlpha"/>
<feOffset dx="10"/>
<feGaussianBlur stdDeviation="10"/>
<feComposite in2="hardAlpha" operator="out"/>
<feColorMatrix type="matrix" values="0 0 0 0 0 0 0 0 0 0 0 0 0 0 0 0 0 0 0.25 0"/>
<feBlend mode="normal" in2="BackgroundImageFix" result="effect1_dropShadow_74_651"/>
<feColorMatrix in="SourceAlpha" type="matrix" values="0 0 0 0 0 0 0 0 0 0 0 0 0 0 0 0 0 0 127 0" result="hardAlpha"/>
<feOffset dx="-10"/>
<feGaussianBlur stdDeviation="10"/>
<feComposite in2="hardAlpha" operator="out"/>
<feColorMatrix type="matrix" values="0 0 0 0 0 0 0 0 0 0 0 0 0 0 0 0 0 0 0.25 0"/>
<feBlend mode="normal" in2="effect1_dropShadow_74_651" result="effect2_dropShadow_74_651"/>
<feBlend mode="normal" in="SourceGraphic" in2="effect2_dropShadow_74_651" result="shape"/>
</filter>
<filter id="filter1_dd_74_651" x="277" y="159" width="96" height="165" filterUnits="userSpaceOnUse" color-interpolation-filters="sRGB">
<feFlood flood-opacity="0" result="BackgroundImageFix"/>
<feColorMatrix in="SourceAlpha" type="matrix" values="0 0 0 0 0 0 0 0 0 0 0 0 0 0 0 0 0 0 127 0" result="hardAlpha"/>
<feOffset dx="10"/>
<feGaussianBlur stdDeviation="10"/>
<feComposite in2="hardAlpha" operator="out"/>
<feColorMatrix type="matrix" values="0 0 0 0 0 0 0 0 0 0 0 0 0 0 0 0 0 0 0.25 0"/>
<feBlend mode="normal" in2="BackgroundImageFix" result="effect1_dropShadow_74_651"/>
<feColorMatrix in="SourceAlpha" type="matrix" values="0 0 0 0 0 0 0 0 0 0 0 0 0 0 0 0 0 0 127 0" result="hardAlpha"/>
<feOffset dx="-10"/>
<feGaussianBlur stdDeviation="10"/>
<feComposite in2="hardAlpha" operator="out"/>
<feColorMatrix type="matrix" values="0 0 0 0 0 0 0 0 0 0 0 0 0 0 0 0 0 0 0.25 0"/>
<feBlend mode="normal" in2="effect1_dropShadow_74_651" result="effect2_dropShadow_74_651"/>
<feBlend mode="normal" in="SourceGraphic" in2="effect2_dropShadow_74_651" result="shape"/>
</filter>
<radialGradient id="paint0_radial_74_651" cx="0" cy="0" r="1" gradientUnits="userSpaceOnUse" gradientTransform="translate(317 410.27) rotate(176.218) scale(28.0611 34.2106)">
<stop/>
<stop offset="1" stop-opacity="0"/>
</radialGradient>
<linearGradient id="paint1_linear_74_651" x1="325" y1="388.974" x2="325" y2="306.418" gradientUnits="userSpaceOnUse">
<stop stop-color="white"/>
<stop offset="1" stop-color="white" stop-opacity="0"/>
</linearGradient>
<linearGradient id="paint2_linear_74_651" x1="361" y1="352.974" x2="361" y2="270.418" gradientUnits="userSpaceOnUse">
<stop stop-color="white"/>
<stop offset="1" stop-color="white" stop-opacity="0"/>
</linearGradient>
</defs>
</svg>
